<?xml version="1.0" encoding="UTF-8" standalone="no"?>
<svg
   width="136"
   height="38"
   version="1.1"
   id="svg3"
   sodipodi:docname="stars.svg"
   inkscape:export-filename="stars.svg"
   inkscape:export-xdpi="96"
   inkscape:export-ydpi="96"
   inkscape:version="1.3.2 (091e20ef0f, 2023-11-25)"
   xmlns:inkscape="http://www.inkscape.org/namespaces/inkscape"
   xmlns:sodipodi="http://sodipodi.sourceforge.net/DTD/sodipodi-0.dtd"
   xmlns="http://www.w3.org/2000/svg"
   xmlns:svg="http://www.w3.org/2000/svg">
  <defs
     id="defs3" />
  <sodipodi:namedview
     id="namedview3"
     pagecolor="#505050"
     bordercolor="#eeeeee"
     borderopacity="1"
     inkscape:showpageshadow="0"
     inkscape:pageopacity="0"
     inkscape:pagecheckerboard="0"
     inkscape:deskcolor="#505050"
     inkscape:zoom="9.4236111"
     inkscape:cx="72"
     inkscape:cy="24.035372"
     inkscape:window-width="1920"
     inkscape:window-height="975"
     inkscape:window-x="0"
     inkscape:window-y="32"
     inkscape:window-maximized="1"
     inkscape:current-layer="svg3" />
  <path
     fill="#000"
     d="M 20,0 14,13 0,14 11,24 8,38 20,31 32,38 29,24 40,14 26,13 Z"
     id="path1"
     style="fill:#ffdd55" />
  <path
     fill="#dddddd"
     d="M 68,0 62,13 48,14 59,24 56,38 68,31 80,38 77,24 88,14 74,13 Z"
     id="path2" />
  <path
     fill="#669966"
     d="m 116,0 -6,13 -14,1 11,10 -3,14 12,-7 12,7 -3,-14 11,-10 -14,-1 z"
     id="path3" />
</svg>
